<svg width="200" height="200" viewBox="0 0 200 200" fill="none" xmlns="http://www.w3.org/2000/svg">
<rect width="200" height="200" fill="white"/>
<path fill-rule="evenodd" clip-rule="evenodd" d="M150.068 35.5996L72.798 58.5021L73.2965 122.895L73.4595 123.145C69.8875 120.784 65.6045 119.408 60.9998 119.408C48.5185 119.408 38.4004 129.513 38.4004 141.979C38.4004 154.444 48.5185 164.549 60.9998 164.549C73.4811 164.549 83.5992 154.444 83.5992 141.979C83.5992 140.722 83.4963 139.489 83.2985 138.288L83.433 138.495V82.0684L139.599 65.3064V103.308C136.165 101.205 132.125 99.9919 127.801 99.9919C115.32 99.9919 105.202 110.097 105.202 122.562C105.202 135.028 115.32 145.133 127.801 145.133C140.282 145.133 150.4 135.028 150.4 122.562C150.4 121.622 150.343 120.696 150.231 119.786L150.068 35.5996Z" fill="url(#paint0_linear_1714_15708)"/>
<defs>
<linearGradient id="paint0_linear_1714_15708" x1="94.7327" y1="35.5996" x2="94.7327" y2="164.549" gradientUnits="userSpaceOnUse">
<stop offset="0.453125" stop-color="#436172"/>
<stop offset="1" stop-color="#0F3449"/>
</linearGradient>
</defs>
</svg>
